<svg xmlns="http://www.w3.org/2000/svg" width="24" height="24" fill="#D4AF37"><path d="M12 2.163c3.204 0 3.584.012 4.85.07 1.366.062 2.633.342 3.608 1.317.975.975 1.255 2.242 1.317 3.608.058 1.266.07 1.646.07 4.85s-.012 3.584-.07 4.85c-.062 1.366-.342 2.633-1.317 3.608-.975.975-2.242 1.255-3.608 1.317-1.266.058-1.646.07-4.85.07s-3.584-.012-4.85-.07c-1.366-.062-2.633-.342-3.608-1.317-.975-.975-1.255-2.242-1.317-3.608C2.175 15.584 2.163 15.204 2.163 12s.012-3.584.07-4.85c.062-1.366.342-2.633 1.317-3.608.975-.975 2.242-1.255 3.608-1.317C8.416 2.175 8.796 2.163 12 2.163z"/><circle cx="12" cy="12" r="3.6"/><circle cx="17.5" cy="6.5" r="1.44"/></svg>