<svg xmlns="http://www.w3.org/2000/svg" width="48" height="48" fill="#25D366" viewBox="0 0 24 24"><path d="M16.7 13.4c-.2-.1-1.2-.6-1.3-.7-.2-.1-.4-.2-.6.2s-.7.7-.9.9c-.2.2-.3.2-.6.1-1.6-.8-2.6-1.4-3.6-3.1-.3-.4.3-.5.8-1 .1-.1.2-.3.3-.4s.1-.3 0-.5c0-.1-.6-1.4-.8-1.9-.2-.4-.4-.4-.6-.4H9c-.2 0-.5 0-.8.4s-1 1-1 2.3 1 2.7 1.1 2.9 2.1 3.2 5 4.4c.7.3 1.2.5 1.7.6.7.2 1.4.2 1.9.1.6-.1 1.2-.6 1.3-1.1.2-.6.2-1.1.2-1.2s0-.2-.2-.2z"/><path d="M12 2C6.5 2 2 6.5 2 12c0 1.9.5 3.6 1.4 5.2L2 22l4.9-1.3c1.4.8 3 .7 4.2-.3 1.3-1.1 2-2.8 2-4.6V2h-2z"/></svg>