<svg width="48" height="48" viewBox="0 0 24 24" fill="#25D366" xmlns="http://www.w3.org/2000/svg">
<path d="M12 2C6.48 2 2 6.48 2 12c0 2.11.61 4.07 1.66 5.74L2 22l4.43-1.47A9.945 9.945 0 0012 22c5.52 0 10-4.48 10-10S17.52 2 12 2zm.5 17h-.01c-1.39 0-2.75-.37-3.94-1.07l-.28-.17-2.63.87.89-2.56-.18-.29A7.906 7.906 0 014 12c0-4.41 3.59-8 8-8s8 3.59 8 8-3.59 8-8 8zm4.24-5.44l-1.14-.57c-.15-.07-.32-.12-.49-.08l-.11.02c-.39.05-.75.17-1.1.34-.28.14-.55.32-.8.53-.16.14-.29.29-.41.46-.08.12-.16.25-.19.39l-.07.34c-.04.19-.18.34-.36.44-.23.14-.5.24-.78.28-.22.03-.44.01-.65-.04-.34-.08-.66-.25-.95-.47l-.11-.09c-.25-.23-.47-.5-.64-.79-.12-.19-.16-.4-.17-.61a1.27 1.27 0 01.27-.8c.05-.07.1-.14.16-.21l.11-.12 1.14-.57c.18-.09.39-.12.59-.09l.28.05c.91.19 1.79.6 2.56 1.18l.28.23c.07.05.14.1.2.15.24.19.47.4.67.64.09.1.17.21.22.33s.06.25.04.37c-.03.25-.18.48-.4.64z"/>
</svg>